Coordinates
version=1
nRows=13
nColumns=38
inDegrees=no

Units are S.I. units (second, meters, Newtons, ...)
If the header above contains a line with 'inDegrees', this indicates whether rotational values are in degrees (yes) or radians (no).

endheader
time	pelvis_tilt	pelvis_list	pelvis_rotation	pelvis_tx	pelvis_ty	pelvis_tz	hip_flexion_r	hip_adduction_r	hip_rotation_r	knee_angle_r	ankle_angle_r	subtalar_angle_r	mtp_angle_r	hip_flexion_l	hip_adduction_l	hip_rotation_l	knee_angle_l	ankle_angle_l	subtalar_angle_l	mtp_angle_l	lumbar_extension	lumbar_bending	lumbar_rotation	arm_flex_r	arm_add_r	arm_rot_r	elbow_flex_r	pro_sup_r	wrist_flex_r	wrist_dev_r	arm_flex_l	arm_add_l	arm_rot_l	elbow_flex_l	pro_sup_l	wrist_flex_l	wrist_dev_l
0	1.12108	1.52809	0.399055	0.721077	-0.220631	0.925921	0.118065	0.0130744	0.173152	0.526227	-0.0689546	0	0	-0.000698113	-0.0931718	-0.110492	0.268655	-0.133901	0	0	-0.0375682	0.117303	0.0397244	0.041992	-0.298864	0.321601	0.797149	1.5708	0	0	0.0609095	-0.214368	0.443416	0.692811	1.5708	0	0
0.01	0.839176	1.52116	0.68141	0.721314	-0.220236	0.925383	0.131632	0.0145584	0.181327	0.521514	-0.0701274	0	0	0.0150465	-0.0922655	-0.104905	0.26899	-0.135524	0	0	-0.0188512	0.112296	0.0394081	0.0461247	-0.29518	0.329751	0.786766	1.5708	0	0	0.0617859	-0.215753	0.450986	0.690505	1.5708	0	0
0.02	0.804671	1.51882	0.714882	0.720943	-0.219802	0.924871	0.135171	0.014218	0.179454	0.523564	-0.0697022	0	0	0.0572319	-0.122827	-0.212908	0.370742	-0.12155	0	0	-0.0122568	0.113847	0.0410249	0.0424592	-0.298171	0.328045	0.798305	1.5708	0	0	0.0606429	-0.215267	0.453287	0.695895	1.5708	0	0
0.03	0.771915	1.51769	0.748176	0.720986	-0.219814	0.924759	0.137565	0.0139911	0.17949	0.524149	-0.0693595	0	0	0.0583241	-0.121652	-0.2095	0.36751	-0.120835	0	0	-0.0079374	0.113288	0.0416708	0.0408061	-0.29906	0.32601	0.808808	1.5708	0	0	0.0614169	-0.216536	0.45617	0.701921	1.5708	0	0
0.04	0.746657	1.51704	0.774195	0.721028	-0.219849	0.92472	0.139216	0.0136082	0.179393	0.524498	-0.0690506	0	0	0.0580083	-0.119735	-0.203847	0.361948	-0.121365	0	0	-0.00410816	0.112528	0.0428942	0.0383209	-0.299887	0.32219	0.821313	1.5708	0	0	0.0634171	-0.218317	0.461328	0.708792	1.5708	0	0
0.05	0.723006	1.51654	0.798631	0.721074	-0.219918	0.924738	0.140687	0.0131408	0.179382	0.524678	-0.0689641	0	0	0.0568755	-0.117271	-0.196378	0.354532	-0.122786	0	0	-0.000173323	0.111879	0.0450622	0.0347774	-0.300803	0.316446	0.835788	1.5708	0	0	0.0668783	-0.220395	0.469087	0.716042	1.5708	0	0
0.06	0.660451	1.513	0.861646	0.721114	-0.219762	0.924578	0.145741	0.0130106	0.179646	0.524131	-0.0694843	0	0	0.0594365	-0.115131	-0.188959	0.347084	-0.124449	0	0	0.00624986	0.112706	0.0421953	0.0337769	-0.301166	0.313518	0.851595	1.5708	0	0	0.0648554	-0.224146	0.470223	0.728943	1.5708	0	0
0.07	0.580087	1.50736	0.942624	0.721183	-0.219541	0.924217	0.153677	0.0127782	0.179525	0.524267	-0.0703388	0	0	0.0642946	-0.112553	-0.179499	0.338705	-0.12665	0	0	0.0155147	0.113027	0.039334	0.031577	-0.301704	0.309442	0.869702	1.5708	0	0	0.0613011	-0.228418	0.468986	0.744836	1.5708	0	0
0.08	0.506631	1.50099	1.01687	0.721231	-0.219298	0.923806	0.162183	0.0124921	0.17999	0.524503	-0.0708273	0	0	0.0699748	-0.109814	-0.170016	0.330746	-0.128989	0	0	0.0259642	0.112962	0.0363433	0.0292789	-0.302399	0.305819	0.8888	1.5708	0	0	0.0576827	-0.232521	0.466491	0.761657	1.5708	0	0
0.09	0.451313	1.49511	1.07299	0.721283	-0.219088	0.923463	0.169599	0.0120843	0.180607	0.524579	-0.071027	0	0	0.075095	-0.107373	-0.161784	0.323871	-0.130939	0	0	0.0357671	0.112861	0.0335553	0.0272061	-0.303391	0.303072	0.909005	1.5708	0	0	0.0545494	-0.236827	0.463899	0.77996	1.5708	0	0
0.1	0.402071	1.48882	1.12311	0.721341	-0.218877	0.923108	0.177346	0.0114766	0.180811	0.524863	-0.0713049	0	0	0.0805484	-0.104965	-0.153615	0.317204	-0.133044	0	0	0.0462844	0.112937	0.0310407	0.0245279	-0.304416	0.299163	0.930568	1.5708	0	0	0.0514411	-0.242254	0.462327	0.800544	1.5708	0	0
0.11	0.358846	1.48191	1.16722	0.721407	-0.218657	0.922727	0.185626	0.0112012	0.181007	0.525243	-0.0715214	0	0	0.0866917	-0.10283	-0.146062	0.311028	-0.135183	0	0	0.0571928	0.113401	0.0297009	0.0203804	-0.305626	0.292616	0.954291	1.5708	0	0	0.0492469	-0.247911	0.461164	0.822366	1.5708	0	0
0.12	0.32253	1.47477	1.20434	0.721489	-0.218446	0.922342	0.194085	0.011239	0.181325	0.525827	-0.0718095	0	0	0.0931828	-0.101001	-0.139223	0.305651	-0.137307	0	0	0.0676985	0.11409	0.0278393	0.0165121	-0.306837	0.286919	0.979512	1.5708	0	0	0.0462762	-0.253743	0.45735	0.846176	1.5708	0	0
